<?xml version="1.0" encoding="iso-8859-1"?>
<!-- Uploaded to: SVG Repo, www.svgrepo.com, Generator: SVG Repo Mixer Tools -->
<svg height="80px" width="80px" version="1.1" id="Layer_1" xmlns="http://www.w3.org/2000/svg" xmlns:xlink="http://www.w3.org/1999/xlink" 
	 viewBox="0 0 512.001 512.001" xml:space="preserve">
<path style="fill:#FBA026;" d="M477.863,224.241c0,65.934-53.45,119.383-119.383,119.383s-119.383-53.45-119.383-119.383
	S358.48,10.477,358.48,10.477S477.863,158.308,477.863,224.241z"/>
<path style="fill:#EB4E49;" d="M417.319,284.785c0,32.496-26.343,58.839-58.839,58.839s-58.839-26.343-58.839-58.839
	s58.839-105.356,58.839-105.356S417.319,252.289,417.319,284.785z"/>
<path style="fill:#747D8C;" d="M360.616,313.342l-25.699,16.155L311.691,294.6l26.631-16.741c9.796-6.16,22.724-3.206,28.884,6.59
	C373.366,294.254,370.412,307.182,360.616,313.342z"/>
<path style="fill:#EFEFEF;" d="M334.917,329.497L66.257,498.305c-3.352,2.106-7.082,3.143-10.77,3.216
	c-7.093,0.115-14.07-3.363-18.124-9.806c-6.16-9.796-3.206-22.734,6.59-28.894L311.691,294.6L334.917,329.497z"/>
<g>
	<path style="fill:#231F20;" d="M434.09,183.433c-2.399-5.264-8.615-7.584-13.878-5.187c-5.264,2.401-7.586,8.615-5.186,13.879
		l0.34,0.752c1.747,3.879,5.563,6.176,9.558,6.176c1.438,0,2.901-0.298,4.297-0.927c5.275-2.377,7.625-8.579,5.249-13.855
		L434.09,183.433z"/>
	<path style="fill:#231F20;" d="M413.473,144.353c-6.226-10.603-13.351-21.999-21.178-33.868
		c-7.751-11.757-16.268-24.086-25.315-36.646c-3.383-4.695-9.931-5.759-14.624-2.377c-4.695,3.382-5.759,9.93-2.378,14.624
		c8.88,12.326,17.232,24.416,24.824,35.931c7.628,11.568,14.559,22.653,20.603,32.944c1.951,3.323,5.45,5.173,9.044,5.173
		c1.802,0,3.628-0.465,5.295-1.444C414.734,155.762,416.404,149.342,413.473,144.353z"/>
	<path style="fill:#231F20;" d="M426.915,86.861c-29.777-45.096-59.982-82.593-60.283-82.967C364.642,1.431,361.646,0,358.48,0
		s-6.162,1.431-8.151,3.894c-0.301,0.373-30.506,37.869-60.283,82.967c-40.76,61.727-61.426,107.949-61.426,137.381
		c0,34.087,13.209,65.142,34.768,88.334L38.376,453.953c-7.106,4.469-12.048,11.437-13.916,19.623
		c-1.868,8.187-0.436,16.611,4.037,23.721c5.812,9.236,15.736,14.705,26.664,14.705c0.177,0,0.357-0.001,0.535-0.004
		c5.716-0.113,11.296-1.78,16.136-4.82l251.384-157.953c11.218,3.171,23.044,4.879,35.264,4.879
		c71.605,0,129.86-58.255,129.86-129.86C488.341,194.81,467.674,148.588,426.915,86.861z M60.686,489.433
		c-1.621,1.018-3.49,1.576-5.369,1.613c-3.695,0.056-7.114-1.776-9.084-4.908c-3.075-4.889-1.596-11.371,3.295-14.447L308.623,308.9
		l11.613,17.449L60.686,489.433z M358.48,333.148c-2.896,0-5.73-0.262-8.486-0.753l16.199-10.182l0.001-0.001
		c14.668-9.225,19.101-28.665,9.881-43.339c-4.468-7.106-11.434-12.048-19.616-13.916c-8.185-1.867-16.607-0.436-23.713,4.032
		l-22.559,14.181c1.447-19.212,27.529-59.37,48.293-86.729c21.363,28.148,48.362,69.851,48.362,88.344
		C406.843,311.453,385.148,333.148,358.48,333.148z M337.984,315.195l-11.613-17.449l17.529-11.02
		c2.367-1.488,5.17-1.965,7.895-1.343c2.728,0.622,5.05,2.27,6.538,4.639c3.075,4.891,1.596,11.373-3.294,14.45L337.984,315.195z
		 M421.891,312.731c3.785-8.555,5.905-18.005,5.905-27.946c0-35.182-54.903-104.186-61.164-111.938
		c-1.988-2.463-4.986-3.894-8.151-3.894c-3.165,0-6.162,1.431-8.151,3.894c-6.261,7.752-61.165,76.756-61.165,111.938
		c0,3.757,0.307,7.443,0.889,11.036l-8.55,5.371c-19.715-19.719-31.931-46.933-31.931-76.952
		c0-47.195,72.29-149.834,108.908-196.887c36.616,47.053,108.907,149.693,108.907,196.887
		C467.388,260.655,449.421,292.948,421.891,312.731z"/>
</g>
</svg>